<?xml version="1.0" standalone="no"?>
<!DOCTYPE svg PUBLIC "-//W3C//DTD SVG 20010904//EN"
 "http://www.w3.org/TR/2001/REC-SVG-20010904/DTD/svg10.dtd">
<svg version="1.0" xmlns="http://www.w3.org/2000/svg"
 width="873.000000pt" height="1280.000000pt" viewBox="0 0 873.000000 1280.000000"
 preserveAspectRatio="xMidYMid meet">
<g transform="translate(0.000000,1280.000000) scale(0.100000,-0.100000)"
fill="#000000" stroke="none">
<path d="M6480 12761 c-221 -79 -490 -235 -705 -408 -496 -399 -858 -946
-1009 -1525 -34 -128 -76 -356 -76 -408 0 -16 34 41 93 155 403 785 1009 1246
1928 1465 134 32 462 90 506 90 37 0 21 13 -57 45 -89 37 -233 124 -303 182
-127 107 -215 252 -251 416 -4 15 -10 27 -14 26 -4 0 -54 -17 -112 -38z"/>
<path d="M1900 11768 c-39 -223 -161 -408 -373 -566 l-89 -67 98 -2 c795 -17
1332 -180 1780 -540 141 -114 331 -315 454 -481 57 -77 106 -139 108 -138 1 2
-11 48 -29 102 -176 551 -481 978 -924 1296 -269 192 -588 341 -991 462 -19 6
-22 0 -34 -66z"/>
<path d="M6316 10719 c-102 -12 -198 -45 -366 -126 -334 -159 -581 -382 -745
-673 -129 -228 -215 -511 -264 -876 -62 -454 -58 -711 15 -1013 77 -316 224
-625 426 -892 349 -465 831 -724 1262 -679 245 25 586 187 796 377 350 316
549 736 621 1308 16 132 17 491 0 630 -54 466 -201 900 -398 1179 -22 31 -31
51 -24 55 6 4 99 18 208 31 117 14 188 26 177 31 -36 13 -299 39 -396 39 l-95
0 -37 55 c-54 78 -226 239 -331 311 -274 187 -582 275 -849 243z m1164 -841
c90 -135 221 -392 274 -538 49 -135 100 -335 123 -480 22 -142 25 -518 5 -655
-114 -791 -591 -1434 -1127 -1517 -56 -9 -100 -9 -182 0 -294 33 -541 117
-753 257 -106 70 -292 259 -369 375 -211 316 -333 759 -358 1287 l-6 141 48
69 c193 274 438 517 672 666 73 47 265 147 281 147 5 0 -3 -35 -18 -78 -174
-491 -73 -1073 242 -1391 124 -125 266 -207 412 -237 102 -21 160 -15 242 26
213 104 416 425 479 753 75 393 -25 794 -285 1140 -38 50 -68 93 -66 95 5 4
263 49 291 51 15 1 39 -28 95 -111z m-952 -253 l74 -17 -6 -32 c-3 -17 -35
-220 -71 -451 -36 -231 -68 -431 -72 -445 -5 -20 -11 -8 -35 65 -85 270 -101
584 -42 846 l15 67 32 -8 c18 -4 65 -15 105 -25z"/>
<path d="M2195 10140 c-228 -36 -427 -135 -597 -298 l-86 -83 -199 -3 c-109
-2 -227 -9 -263 -15 -148 -25 -191 -34 -188 -37 2 -2 118 -13 258 -24 140 -12
256 -23 258 -25 3 -2 -23 -41 -55 -87 -189 -264 -311 -560 -370 -898 -31 -180
-42 -475 -24 -656 58 -568 287 -1074 642 -1420 240 -233 468 -354 819 -437 50
-12 55 -16 64 -48 26 -98 83 -264 118 -344 200 -453 595 -804 1178 -1046 l115
-48 3 -36 c5 -56 -32 -161 -87 -250 -61 -99 -149 -206 -292 -354 -61 -62 -108
-115 -105 -118 2 -2 39 1 82 7 338 51 661 295 863 653 18 32 32 60 30 61 -2 2
-76 32 -164 67 -284 113 -536 249 -748 406 -136 100 -355 322 -435 440 -291
429 -329 896 -116 1412 45 107 77 154 159 229 78 72 169 121 290 158 84 26
103 28 270 28 195 0 257 -9 450 -66 355 -105 735 -344 1025 -644 187 -193 308
-364 420 -596 38 -79 70 -136 70 -128 0 46 -32 238 -54 322 -170 664 -773
1224 -1510 1403 -54 14 -100 26 -102 28 -3 2 1 62 7 133 23 262 -2 654 -55
889 -171 744 -644 1274 -1261 1411 -84 18 -326 27 -410 14z m-150 -614 c81
-16 109 -26 108 -37 -1 -8 -22 -63 -47 -124 -53 -129 -88 -264 -112 -425 -20
-140 -14 -434 11 -545 80 -354 256 -594 544 -738 99 -50 107 -52 185 -52 98 0
168 20 254 72 90 55 157 116 221 202 174 235 258 543 231 848 -5 59 -8 108 -6
110 7 7 279 -303 292 -332 20 -50 34 -186 34 -346 0 -137 -14 -378 -25 -425
-5 -20 -12 -22 -182 -27 -364 -11 -617 -106 -826 -306 -212 -203 -317 -499
-317 -893 l0 -154 -76 8 c-154 16 -295 68 -440 163 -126 81 -298 257 -396 405
-343 514 -479 1272 -337 1880 69 298 202 558 379 741 l65 67 165 -35 c91 -19
215 -45 275 -57z m423 -205 c73 -23 102 -36 102 -47 0 -9 -11 -82 -25 -163
-13 -80 -43 -281 -65 -446 -23 -164 -43 -301 -44 -303 -7 -7 -48 113 -72 213
-53 220 -67 458 -39 670 8 61 15 112 15 114 0 2 6 1 13 -2 6 -2 58 -18 115
-36z"/>
<path d="M8343 6562 l6 -190 -66 -89 c-253 -339 -597 -720 -918 -1016 -1671
-1540 -3802 -2076 -5421 -1363 -609 269 -1124 692 -1534 1261 l-57 80 -6 320
c-3 176 -10 335 -14 354 -8 32 -13 35 -66 48 -60 13 -178 65 -235 104 l-34 22
6 -44 c4 -24 36 -318 71 -654 36 -335 68 -632 73 -658 l7 -48 83 111 83 111
77 -129 c300 -499 705 -896 1207 -1181 l91 -51 27 -249 c152 -1379 511 -2202
1087 -2491 366 -184 795 -134 1375 160 628 317 1297 884 2026 1715 789 901
1641 2142 2125 3098 50 98 90 167 97 164 14 -4 29 -67 51 -216 16 -104 53
-206 86 -236 16 -15 17 0 23 287 8 410 37 642 106 859 l29 88 -52 5 c-28 3
-116 8 -195 11 l-144 7 6 -190z m-1710 -2136 c-4 -8 -58 -75 -119 -148 -577
-692 -1212 -1161 -1882 -1387 -632 -213 -1275 -214 -1923 -1 -145 48 -339 128
-345 144 -4 11 -74 473 -74 488 0 4 17 0 37 -9 21 -8 85 -30 143 -49 431 -138
945 -170 1500 -93 781 108 1720 473 2530 983 74 46 136 85 138 85 2 1 -1 -5
-5 -13z"/>
<path d="M4290 5977 c0 -4 41 -28 92 -53 297 -149 520 -343 559 -486 7 -29 6
-46 -5 -73 -23 -54 -83 -77 -221 -84 l-109 -6 64 -42 c226 -147 422 -162 541
-43 62 62 83 125 77 229 -17 260 -240 460 -598 537 -75 16 -400 33 -400 21z"/>
<path d="M6985 3113 c-201 -285 -515 -695 -724 -948 -937 -1129 -1750 -1736
-2477 -1850 -159 -25 -420 -16 -560 19 -362 90 -646 288 -987 686 l-39 45 23
-40 c107 -192 270 -407 429 -565 406 -406 859 -541 1375 -410 880 222 1899
1247 2887 2905 177 297 186 317 73 158z"/>
</g>
</svg>
